<?xml version="1.0" encoding="UTF-8" standalone="no"?>
<!-- Created with Inkscape (http://www.inkscape.org/) -->

<svg
   width="134.14722"
   height="141.29749"
   viewBox="0 0 35.493117 37.384959"
   version="1.1"
   id="svg1"
   xml:space="preserve"
   inkscape:version="1.4.3 (0d15f75, 2025-12-25)"
   sodipodi:docname="dh-call.svg"
   inkscape:export-filename="site.svg"
   inkscape:export-xdpi="96"
   inkscape:export-ydpi="96"
   xmlns:inkscape="http://www.inkscape.org/namespaces/inkscape"
   xmlns:sodipodi="http://sodipodi.sourceforge.net/DTD/sodipodi-0.dtd"
   xmlns="http://www.w3.org/2000/svg"
   xmlns:svg="http://www.w3.org/2000/svg"><sodipodi:namedview
     id="namedview1"
     pagecolor="#ffffff"
     bordercolor="#000000"
     borderopacity="0.25"
     inkscape:showpageshadow="2"
     inkscape:pageopacity="0.0"
     inkscape:pagecheckerboard="0"
     inkscape:deskcolor="#d1d1d1"
     inkscape:document-units="px"
     inkscape:zoom="1.621544"
     inkscape:cx="596.96189"
     inkscape:cy="1324.355"
     inkscape:window-width="1920"
     inkscape:window-height="1001"
     inkscape:window-x="-9"
     inkscape:window-y="-9"
     inkscape:window-maximized="1"
     inkscape:current-layer="g36-8"
     showguides="true"><sodipodi:guide
       position="698.12732,280.83352"
       orientation="1,0"
       id="guide31"
       inkscape:locked="false" /><sodipodi:guide
       position="790.72152,194.10526"
       orientation="1,0"
       id="guide32"
       inkscape:locked="false" /><sodipodi:guide
       position="996.60615,279.92973"
       orientation="0,-1"
       id="guide33"
       inkscape:locked="false" /><sodipodi:guide
       position="987.26945,256.35455"
       orientation="0,-1"
       id="guide34"
       inkscape:locked="false" /><inkscape:page
       x="0"
       y="0"
       width="35.493118"
       height="37.38496"
       id="page2"
       margin="0"
       bleed="0" /></sodipodi:namedview><defs
     id="defs1" /><g
     inkscape:groupmode="layer"
     id="layer2"
     inkscape:label="Calque 2"
     transform="translate(697.59815,-426.01105)"><g
       id="g16-7"
       transform="matrix(0.63746509,0,0,0.63746509,-185.47655,205.83056)"
       inkscape:export-filename="..\Documents\projets\dh\img\bg-machine.svg"
       inkscape:export-xdpi="96"
       inkscape:export-ydpi="96"><g
         id="g6-6-5-9"
         style="fill:#e2e8f0;fill-opacity:1"
         transform="matrix(1.2610786,0,0,1.2610786,-881.08454,294.94926)"><g
           id="g4-4-5-8"
           style="fill:#e2e8f0;fill-opacity:1"><path
             id="path2-0-3-0"
             style="fill:#8c8ea5;fill-opacity:1;stroke-width:0.24441"
             d="M 61.688224,63.57028 A 21.286188,21.286188 0 0 0 79.484037,86.233496 21.286188,21.286188 0 0 0 103.9182,68.651107 21.286188,21.286188 0 0 0 88.565137,44.703731 l -1.496033,6.522083 A 14.604108,14.604108 0 0 1 97.323775,67.57572 14.604108,14.604108 0 0 1 80.559424,79.63855 14.604108,14.604108 0 0 1 68.337431,64.268945 Z" /><rect
             style="fill:#8c8ea5;fill-opacity:1;stroke-width:0.270748"
             id="rect2-6-3-1"
             width="6.6449556"
             height="21.75388"
             x="97.55835"
             y="43.507759" /><path
             sodipodi:type="star"
             style="fill:#8c8ea5;fill-opacity:1;stroke-width:0.264583"
             id="path3-1-3-4"
             inkscape:flatsided="false"
             sodipodi:sides="3"
             sodipodi:cx="47.145779"
             sodipodi:cy="39.424267"
             sodipodi:r1="5.6470389"
             sodipodi:r2="2.8235195"
             sodipodi:arg1="0.88784202"
             sodipodi:arg2="1.9350396"
             inkscape:rounded="0"
             inkscape:randomized="0"
             d="m 50.709554,43.804741 -4.569632,-1.742196 -4.569633,-1.742195 3.793602,-3.08632 3.793602,-3.08632 0.77603,4.828515 z"
             inkscape:transform-center-x="-0.8220962"
             inkscape:transform-center-y="-0.81079235"
             transform="matrix(0.93843011,-0.1649717,0.34546915,0.44812802,43.054767,32.813104)" /></g><g
           id="g5-8-7-7"
           style="fill:#8c8ea5;fill-opacity:1"><rect
             style="fill:#8c8ea5;fill-opacity:1;stroke-width:0.27193"
             id="rect2-2-9-4-5"
             width="6.6928568"
             height="21.7871"
             x="61.622417"
             y="-87.106026"
             transform="scale(1,-1)" /><path
             sodipodi:type="star"
             style="fill:#8c8ea5;fill-opacity:1;stroke-width:0.264583"
             id="path3-7-8-3-5"
             inkscape:flatsided="false"
             sodipodi:sides="3"
             sodipodi:cx="47.145779"
             sodipodi:cy="39.424267"
             sodipodi:r1="5.6470389"
             sodipodi:r2="2.8235195"
             sodipodi:arg1="0.88784202"
             sodipodi:arg2="1.9350396"
             inkscape:rounded="0"
             inkscape:randomized="0"
             d="m 50.709554,43.804741 -4.569632,-1.742196 -4.569633,-1.742195 3.793602,-3.08632 3.793602,-3.08632 0.77603,4.828515 z"
             inkscape:transform-center-x="-0.81437418"
             inkscape:transform-center-y="-0.8120307"
             transform="matrix(0.92961473,0.16522362,0.3422239,-0.44881234,7.6308274,97.81782)" /></g></g><path
         d="m -795.73367,369.78223 v -5.21007 q -1.54373,-1.54373 -2.42586,-3.56987 -0.88213,-2.02614 -0.88213,-4.17634 0,-4.47955 3.13322,-7.61526 3.13321,-3.13569 7.60919,-3.13569 3.73003,0 6.61074,2.20532 2.8807,2.20532 3.76283,5.73385 l 1.4886,5.89924 q 0.22053,0.82699 -0.29827,1.48859 -0.5188,0.6616 -1.3833,0.6616 h -1.62642 v 2.03992 q 0,1.46103 -1.00618,2.46721 -1.00618,1.00618 -2.46721,1.00618 h -0.93726 v 2.20532 h -3.47339 v -5.67871 h 4.41065 v -5.51331 h 2.86693 l -0.9097,-3.72148 q -0.63403,-2.31559 -2.59126,-3.81796 -1.95722,-1.50239 -4.43821,-1.50239 -3.01496,0 -5.1464,2.10443 -2.13117,2.10443 -2.13117,5.11801 0,1.54373 0.63403,2.97718 0.63403,1.43347 1.81939,2.48101 l 0.85456,0.79942 v 6.7538 z m 7.77377,-10.11692 z m -1.43346,1.5713 h 2.20532 l 0.1654,-1.37834 q 0.22053,-0.0827 0.39972,-0.19296 0.17918,-0.11026 0.3115,-0.24809 l 1.21844,0.55132 1.15779,-1.87452 -1.10266,-0.827 q 0.0551,-0.22053 0.0551,-0.44107 0,-0.22054 -0.0551,-0.44106 l 1.10266,-0.82699 -1.15779,-1.87454 -1.21844,0.55134 q -0.13232,-0.13783 -0.3115,-0.2481 -0.17919,-0.11026 -0.39972,-0.19296 l -0.1654,-1.37834 h -2.20532 l -0.1654,1.37834 q -0.22054,0.0827 -0.39972,0.19296 -0.17918,0.11027 -0.3115,0.2481 l -1.21844,-0.55134 -1.1578,1.87454 1.10267,0.82699 q -0.0551,0.22052 -0.0551,0.44106 0,0.22054 0.0551,0.44107 l -1.10267,0.827 1.1578,1.87452 1.21844,-0.55132 q 0.13232,0.13783 0.3115,0.24809 0.17918,0.11026 0.39972,0.19296 z m -0.0689,-3.23907 q -0.48242,-0.48243 -0.48242,-1.17159 0,-0.68916 0.48242,-1.17157 0.48241,-0.48242 1.17158,-0.48242 0.68916,0 1.17158,0.48242 0.48241,0.48241 0.48241,1.17157 0,0.68916 -0.48241,1.17159 -0.48242,0.4824 -1.17158,0.4824 -0.68917,0 -1.17158,-0.4824 z"
         id="path1-9-5-5"
         style="fill:#fe0708;fill-opacity:1;stroke-width:0.0275665" /></g></g></svg>
